<svg width="24" height="24" viewBox="0 0 24 24" fill="none" xmlns="http://www.w3.org/2000/svg">
<g clip-path="url(#clip0_365_16386)">
<path d="M15.0195 5.08838V9.78291L16.6782 10.8159C16.722 10.8285 16.8168 10.8294 16.8605 10.8159L23.9993 6.05559C23.9993 5.49221 23.4679 5.08838 23.1681 5.08838H15.0195Z" fill="black"/>
<path d="M15.0195 11.5344L16.5333 12.5629C16.7465 12.718 17.0035 12.5629 17.0035 12.5629C16.7474 12.718 24.0001 7.95312 24.0001 7.95312V16.5814C24.0001 17.5207 23.3922 17.9146 22.7087 17.9146H15.0186V11.5344H15.0195Z" fill="black"/>
<path d="M7.18164 9.37012C6.6658 9.37012 6.25478 9.60989 5.95129 10.0885C5.6478 10.5672 5.49561 11.2009 5.49561 11.9896C5.49561 12.7901 5.6478 13.4228 5.95129 13.888C6.25478 14.354 6.65304 14.5857 7.14518 14.5857C7.65282 14.5857 8.05564 14.3594 8.35275 13.9069C8.64985 13.4544 8.79932 12.8261 8.79932 12.023C8.79932 11.1856 8.65532 10.5338 8.36642 10.0678C8.07752 9.60268 7.68289 9.37012 7.18164 9.37012Z" fill="black"/>
<path d="M0 2.70423V21.0704L14.1262 24V0L0 2.70423V2.70423ZM9.45272 14.9922C8.85578 15.7692 8.07747 16.1586 7.11688 16.1586C6.18091 16.1586 5.419 15.7819 4.82935 15.0292C4.2406 14.2756 3.94532 13.2949 3.94532 12.0852C3.94532 10.8079 4.24425 9.77487 4.84302 8.98614C5.44179 8.19741 6.23468 7.80259 7.22169 7.80259C8.15402 7.80259 8.90864 8.17938 9.48371 8.93476C10.0597 9.69014 10.3477 10.6853 10.3477 11.9211C10.3486 13.1912 10.0497 14.2152 9.45272 14.9922Z" fill="black"/>
</g>
<defs>
<clipPath id="clip0_365_16386">
<rect width="24" height="24" fill="white"/>
</clipPath>
</defs>
</svg>
